<svg version="1.1" xmlns="http://www.w3.org/2000/svg" fill="#7653FC"
     width="190.000000pt" height="30.000000pt" viewBox="0 0 650.000000 170.000000"
     preserveAspectRatio="xMidYMid meet">
    <style>
        .text-size {
            font: italic 140px serif;
        }
    </style>
    <g transform="translate(-220.000000,200.000000) scale(0.150000,-0.100000)" stroke="linear">
        <path d="M36 1655 c9 -14 21 -22 27 -18 6 4 8 0 4 -9 -3 -9 2 -24 12 -34 9
-11 17 -22 17 -25 -1 -4 40 -67 89 -141 59 -88 95 -133 104 -130 10 3 12 0 8
-12 -8 -20 65 -141 90 -150 14 -6 14 -3 -3 16 -10 13 -23 26 -27 29 -4 3 -6
19 -3 35 4 25 4 27 -8 12 -11 -15 -13 -13 -14 20 -1 20 -8 42 -17 48 -8 6 -15
19 -15 29 0 14 -3 15 -14 6 -11 -9 -12 -7 -9 12 5 23 6 24 110 19 65 -3 104
-1 100 5 -9 14 6 31 36 38 22 6 27 4 26 -11 0 -11 -3 -14 -6 -6 -10 26 -23 10
-23 -29 0 -38 2 -41 24 -37 19 4 23 1 19 -11 -5 -13 -3 -14 7 -4 18 17 23 50
8 59 -7 5 -8 3 -3 -6 5 -9 4 -11 -3 -6 -7 4 -12 16 -12 27 0 11 -10 33 -22 49
-18 25 -24 27 -37 17 -12 -9 -13 -9 -7 1 4 7 1 15 -8 18 -18 7 -22 34 -6 34 6
0 10 -5 10 -12 0 -6 3 -8 6 -5 4 4 1 14 -7 23 -9 12 -24 15 -51 11 -39 -5 -58
7 -40 25 8 8 16 7 27 -2 12 -10 15 -10 15 0 0 9 4 9 17 -1 19 -15 18 -13 -51
93 l-31 48 -178 0 -177 0 16 -25z m278 -17 c-1 -12 5 -18 18 -18 15 0 18 5 13
20 -4 11 -2 20 4 20 12 0 15 -12 11 -44 -1 -15 3 -18 24 -14 14 3 23 1 20 -3
-3 -5 2 -9 10 -9 9 0 16 -5 16 -11 0 -5 -8 -9 -17 -8 -10 2 -33 -1 -51 -5 -22
-5 -38 -4 -45 3 -14 14 -64 14 -72 1 -3 -5 -28 -10 -56 -10 -27 0 -49 -4 -49
-10 0 -5 6 -10 13 -10 8 0 7 -3 -3 -9 -10 -7 -18 -4 -26 8 -19 27 -3 81 23 81
9 0 13 6 10 14 -8 19 14 24 93 23 55 -2 65 -5 64 -19z m-200 -25 c-5 -5 -12
-12 -15 -16 -3 -5 -9 -2 -12 7 -5 12 0 16 15 16 12 0 17 -3 12 -7z m86 -153
c0 -5 -4 -10 -10 -10 -5 0 -10 5 -10 10 0 6 5 10 10 10 6 0 10 -4 10 -10z m30
-41 c0 -5 -4 -9 -10 -9 -5 0 -10 7 -10 16 0 8 5 12 10 9 6 -3 10 -10 10 -16z
m20 -25 c0 -8 -19 -13 -24 -6 -3 5 1 9 9 9 8 0 15 -2 15 -3z m70 -4 c0 -5 -9
-10 -20 -10 -11 0 -20 5 -20 10 0 6 9 10 20 10 11 0 20 -4 20 -10z m-50 -46
c0 -8 -4 -12 -10 -9 -5 3 -10 13 -10 21 0 8 5 12 10 9 6 -3 10 -13 10 -21z"/>
        <path d="M180 1610 c0 -5 5 -10 10 -10 6 0 10 5 10 10 0 6 -4 10 -10 10 -5 0
-10 -4 -10 -10z"/>
        <path d="M785 1670 c-4 -6 6 -7 25 -4 26 6 29 4 24 -10 -5 -12 -15 -16 -35
-12 -16 2 -27 1 -24 -4 3 -5 1 -10 -4 -12 -5 -1 -44 -66 -87 -143 -43 -77 -81
-141 -85 -143 -11 -5 2 -34 20 -50 9 -8 11 -11 5 -8 -7 3 -15 -1 -18 -10 -10
-26 -7 -34 14 -34 11 0 20 5 20 11 0 5 5 7 11 3 7 -4 7 -9 2 -13 -5 -3 -12
-14 -16 -23 -5 -15 -19 -18 -82 -18 l-75 0 0 -60 c0 -57 -1 -60 -24 -60 -14 0
-32 10 -40 22 -9 12 -18 19 -21 16 -3 -3 0 -12 7 -20 44 -47 43 -52 -27 -179
-37 -67 -64 -123 -61 -127 3 -3 6 -1 6 4 0 5 8 10 18 11 14 1 17 -8 18 -63 1
-48 -2 -64 -12 -64 -8 0 -14 5 -14 10 0 18 -40 11 -41 -7 0 -15 -2 -15 -9 2
-13 29 -12 35 6 35 8 0 12 5 9 10 -3 6 0 13 9 16 8 3 12 12 9 20 -7 20 -14 12
-57 -63 l-35 -63 172 0 c95 0 177 4 183 8 6 4 24 32 41 62 22 42 28 62 22 82
-5 19 -3 31 7 39 9 7 12 20 8 33 -4 12 -3 18 1 14 12 -11 14 -57 4 -64 -5 -3
-9 -13 -9 -22 0 -9 27 31 59 90 40 71 58 114 55 130 -4 20 -3 21 4 3 9 -19 9
-19 17 5 4 14 9 77 10 140 1 96 5 127 28 189 44 124 132 236 237 302 l45 29
-157 0 c-92 0 -159 -4 -163 -10z m148 -7 c-13 -2 -35 -2 -50 0 -16 2 -5 4 22
4 28 0 40 -2 28 -4z m102 1 c22 -9 0 -24 -34 -24 -20 0 -21 2 -11 15 14 17 21
18 45 9z m-244 -51 c-8 -15 -10 -15 -11 -2 0 17 10 32 18 25 2 -3 -1 -13 -7
-23z m163 -28 c-4 -8 -10 -12 -15 -9 -11 6 -2 24 11 24 5 0 7 -7 4 -15z m-264
-418 c-5 -12 -11 -30 -14 -41 -5 -15 -9 -16 -21 -6 -12 10 -10 16 12 38 23 23
24 27 9 37 -9 7 -16 16 -16 20 0 5 9 0 19 -9 15 -13 18 -23 11 -39z m86 -114
c-6 -6 -56 -14 -56 -8 0 2 8 14 17 25 17 19 19 19 30 3 7 -9 11 -18 9 -20z
m-290 -30 c-3 -8 1 -26 10 -41 15 -25 15 -26 0 -7 -9 11 -22 27 -29 35 -17 20
-11 41 9 33 8 -3 13 -12 10 -20z m63 -74 c-7 -14 -14 -18 -21 -11 -13 13 -2
32 18 32 12 0 13 -4 3 -21z m8 -51 c-3 -8 -6 -5 -6 6 -1 11 2 17 5 13 3 -3 4
-12 1 -19z m163 18 c0 -3 -4 -8 -10 -11 -5 -3 -10 -1 -10 4 0 6 5 11 10 11 6
0 10 -2 10 -4z m-20 -37 c0 -6 -4 -7 -10 -4 -5 3 -10 11 -10 16 0 6 5 7 10 4
6 -3 10 -11 10 -16z m-243 -191 c-2 -7 -10 -12 -16 -10 -6 1 -11 -5 -11 -13 0
-8 -7 -15 -15 -15 -18 0 -19 16 -2 35 15 18 50 20 44 3z m110 -30 c-3 -8 -6
-5 -6 6 -1 11 2 17 5 13 3 -3 4 -12 1 -19z m-260 -4 c-3 -3 -12 -4 -19 -1 -8
3 -5 6 6 6 11 1 17 -2 13 -5z"/>
        <path d="M1285 1669 c-61 -10 -135 -37 -135 -50 0 -5 -9 -9 -19 -9 -11 0 -26
-7 -35 -15 -8 -8 -18 -15 -22 -15 -12 0 -146 -141 -140 -147 3 -3 -1 -12 -9
-19 -23 -24 -56 -123 -49 -152 4 -21 3 -24 -5 -12 -8 11 -11 -10 -11 -81 0
-107 16 -173 63 -262 49 -93 177 -211 208 -192 5 4 8 1 7 -7 -4 -19 118 -57
209 -65 62 -5 75 -4 68 7 -6 10 -2 12 16 7 13 -4 42 -4 63 0 37 6 38 7 16 15
-16 6 -26 5 -28 -1 -5 -14 -39 -14 -47 -1 -3 5 1 10 9 10 9 0 16 5 16 10 0 6
-7 10 -15 10 -8 0 -15 5 -15 10 0 13 37 13 45 0 3 -6 13 -10 21 -10 9 0 22 -7
30 -15 13 -13 19 -13 52 1 50 20 112 62 112 75 0 5 4 8 9 5 4 -3 24 12 44 33
27 30 33 41 24 50 -9 9 -8 11 4 6 19 -7 54 39 43 57 -4 6 -3 8 3 5 6 -4 15 5
22 19 16 36 13 42 -8 15 -14 -19 -24 -22 -45 -17 -17 4 -26 13 -26 26 0 13 -7
20 -20 20 -11 0 -20 5 -20 10 0 6 9 10 20 10 13 0 20 7 20 20 0 16 -7 20 -35
20 -28 0 -35 4 -35 20 0 11 7 20 15 20 11 0 15 11 15 40 0 33 -3 40 -20 40
-14 0 -20 7 -20 21 0 11 -4 17 -10 14 -5 -3 -10 3 -10 14 0 12 7 21 15 21 8 0
15 -7 15 -15 0 -10 11 -15 35 -15 28 0 35 4 35 20 0 16 7 20 35 20 47 0 75
-26 76 -70 0 -19 4 -44 9 -55 15 -34 11 82 -4 156 -17 80 -52 153 -68 143 -7
-5 -9 -2 -5 9 8 21 -60 106 -122 152 -56 40 -137 79 -150 70 -5 -3 -11 -1 -13
5 -2 6 -28 13 -58 15 -42 4 -50 3 -32 -4 12 -6 22 -12 22 -14 0 -2 -10 -3 -22
-2 -13 1 -34 3 -48 4 -25 2 -25 2 -2 11 50 21 3 25 -93 9z m285 -58 c6 -10 10
-11 10 -3 0 6 5 12 11 12 5 0 7 -5 3 -11 -4 -7 -1 -10 7 -7 8 3 22 -4 32 -16
10 -11 26 -21 35 -21 12 0 16 -7 14 -22 -2 -13 2 -23 8 -23 6 0 9 4 5 9 -3 5
-1 12 4 15 5 3 11 -3 14 -14 3 -11 11 -19 19 -18 7 2 12 -2 11 -9 -2 -7 6 -17
17 -23 12 -7 17 -16 13 -27 -5 -11 -3 -14 6 -8 10 6 11 0 6 -26 -4 -19 -12
-37 -18 -41 -18 -11 0 -21 40 -22 33 -1 38 -4 36 -24 -2 -13 1 -21 7 -17 16
10 11 -8 -9 -32 -20 -23 -81 -33 -81 -13 0 6 -9 10 -20 10 -11 0 -20 4 -20 9
0 15 -35 19 -48 4 -7 -7 -21 -13 -31 -13 -10 0 -21 -8 -24 -19 -3 -12 1 -18
12 -17 18 1 18 -17 2 -101 -9 -48 -23 -88 -55 -153 -15 -31 -10 -70 10 -70 10
0 14 -13 14 -50 0 -43 -3 -50 -20 -50 -21 0 -23 9 -22 100 1 19 -2 27 -4 18
-3 -10 -9 -18 -14 -18 -5 0 -10 -10 -12 -22 -4 -29 -24 -34 -31 -8 -3 13 0 20
9 20 8 0 11 6 8 15 -4 8 -1 15 5 15 6 0 11 6 11 13 -1 7 -8 4 -18 -8 -19 -22
-29 -26 -80 -33 -19 -2 -36 -10 -39 -18 -4 -11 -8 -11 -20 1 -8 8 -26 15 -41
15 -69 0 -177 90 -200 168 -28 93 -1 203 64 264 43 40 118 70 177 70 88 1 180
-50 217 -120 15 -29 19 -32 20 -16 0 12 -7 27 -15 34 -8 7 -15 19 -15 26 0 8
-11 20 -25 26 -14 6 -25 18 -25 27 0 14 -2 14 -10 1 -6 -10 -10 -11 -10 -2 0
6 -5 11 -12 10 -6 -2 -13 5 -15 14 -3 12 1 15 16 11 15 -4 21 -1 21 11 0 9 -8
16 -20 16 -16 0 -20 7 -20 35 0 28 -4 35 -20 35 -13 0 -20 7 -20 20 0 13 7 20
20 20 25 0 26 26 2 32 -10 3 -19 12 -19 21 0 22 114 20 127 -2z m-390 -1 c0
-5 -2 -10 -4 -10 -3 0 -8 5 -11 10 -3 6 -1 10 4 10 6 0 11 -4 11 -10z m207
-32 c-3 -8 -6 -5 -6 6 -1 11 2 17 5 13 3 -3 4 -12 1 -19z m43 -112 c0 -7 9
-16 21 -19 19 -5 24 -30 6 -28 -4 1 -16 1 -28 1 -13 0 -18 4 -13 12 5 7 2 9
-8 6 -10 -4 -14 0 -12 15 1 12 3 23 3 25 3 9 31 -1 31 -12z m380 -76 c0 -5 -5
-10 -11 -10 -5 0 -7 5 -4 10 3 6 8 10 11 10 2 0 4 -4 4 -10z m-120 -285 c0 -8
-7 -15 -15 -15 -8 0 -15 7 -15 15 0 8 7 15 15 15 8 0 15 -7 15 -15z m-53 -32
c-3 -10 -5 -4 -5 12 0 17 2 24 5 18 2 -7 2 -21 0 -30z m23 -153 c0 -22 -4 -40
-10 -40 -5 0 -10 18 -10 40 0 22 5 40 10 40 6 0 10 -18 10 -40z m120 -24 c0
-8 -4 -17 -9 -21 -12 -7 -24 12 -16 25 9 15 25 12 25 -4z m-350 -10 c-6 -6
-10 -27 -10 -48 0 -27 -4 -38 -15 -38 -13 0 -14 18 -3 85 1 6 10 11 20 11 11
0 14 -4 8 -10z m316 -61 c-1 -8 -6 -18 -12 -22 -5 -4 -6 -4 -2 1 4 5 3 15 -3
23 -9 10 -8 13 4 13 8 0 14 -7 13 -15z m-32 -30 c6 -16 -14 -16 -26 0 -4 6 -8
2 -8 -8 0 -24 -27 -52 -33 -34 -4 14 32 57 49 57 7 0 14 -7 18 -15z m-94 -15
c0 -11 -4 -20 -10 -20 -5 0 -10 9 -10 20 0 11 5 20 10 20 6 0 10 -9 10 -20z
m20 -34 c0 -3 -4 -8 -10 -11 -5 -3 -10 -1 -10 4 0 6 5 11 10 11 6 0 10 -2 10
-4z"/>
        <path d="M1630 1524 c0 -9 5 -14 12 -12 18 6 21 28 4 28 -9 0 -16 -7 -16 -16z"/>
        <path d="M1713 1445 c-15 -17 -17 -125 -3 -125 6 0 10 9 10 20 0 11 7 20 15
20 10 0 15 10 15 30 0 20 -5 30 -15 30 -8 0 -15 5 -15 10 0 6 6 10 14 10 8 0
18 5 21 10 10 15 -28 11 -42 -5z"/>
        <path d="M1540 1421 c0 -12 5 -21 10 -21 6 0 10 6 10 14 0 8 -4 18 -10 21 -5
3 -10 -3 -10 -14z"/>
        <path d="M1299 1349 c-23 -8 -26 -15 -23 -49 3 -40 -18 -62 -40 -40 -7 7 -6
10 4 10 7 0 10 3 7 6 -3 4 -2 15 4 26 6 11 8 22 6 25 -6 6 -54 -57 -59 -77 -2
-8 -7 -18 -11 -21 -15 -11 -20 -88 -7 -103 6 -9 9 -20 5 -25 -13 -22 49 -105
85 -113 8 -2 18 -7 22 -12 3 -5 17 3 31 18 l25 26 4 -25 c5 -21 2 -25 -13 -20
-11 4 -19 2 -19 -4 0 -7 22 -11 53 -10 34 0 45 3 33 8 -16 6 -17 9 -5 17 11 6
7 10 -16 15 -25 6 -23 7 18 8 26 0 50 1 54 2 4 0 9 -5 11 -11 3 -8 -3 -10 -16
-6 -11 4 -23 2 -27 -4 -13 -21 39 -15 71 8 22 16 35 40 15 27 -5 -3 -21 0 -35
6 -14 7 -33 8 -43 4 -58 -26 -118 -10 -164 42 -28 33 -31 41 -27 90 4 42 11
60 34 84 15 16 38 32 49 35 11 3 28 18 37 34 9 17 25 30 35 30 14 0 15 -2 4
-9 -11 -7 -8 -10 10 -16 22 -7 22 -8 4 -21 -14 -10 -15 -14 -4 -14 8 0 25 -9
39 -20 25 -19 25 -19 42 3 16 20 18 21 33 6 15 -15 14 -17 -9 -32 -16 -11 -23
-23 -20 -32 4 -8 10 -12 15 -9 5 3 6 -2 3 -10 -5 -13 1 -16 29 -16 34 0 35 1
27 29 -4 15 -12 37 -18 47 -14 25 -64 68 -80 69 -7 0 -17 6 -22 14 -10 18
-114 25 -151 10z m-65 -254 c4 -14 13 -25 21 -25 8 0 15 -6 15 -14 0 -8 7 -17
16 -20 8 -3 13 -10 10 -15 -4 -5 0 -11 6 -14 7 -2 10 -7 7 -11 -9 -10 -69 14
-66 27 1 7 -4 11 -11 9 -8 -1 -11 2 -7 8 3 5 1 10 -4 10 -6 0 -11 16 -11 35 0
40 15 47 24 10z"/>
        <path d="M1388 1313 c7 -3 16 -2 19 1 4 3 -2 6 -13 5 -11 0 -14 -3 -6 -6z"/>
        <path d="M1560 1132 c0 -4 -9 -8 -21 -9 -29 -3 -51 -23 -46 -44 3 -11 0 -16
-8 -13 -7 3 -16 0 -21 -7 -4 -7 -3 -10 4 -5 6 3 15 -1 20 -9 11 -21 58 -4 67
24 10 33 16 71 10 71 -3 0 -5 -4 -5 -8z m-25 -72 c3 -5 1 -10 -4 -10 -6 0 -11
5 -11 10 0 6 2 10 4 10 3 0 8 -4 11 -10z"/>
        <path d="M1836 1083 c-13 -13 -5 -43 12 -44 10 0 12 -3 5 -6 -7 -2 -13 -9 -13
-14 0 -6 6 -7 13 -3 8 5 8 2 -2 -9 -9 -11 -10 -17 -2 -17 13 0 31 42 31 74 0
21 -29 33 -44 19z"/>
        <path d="M1805 950 c-3 -5 -1 -10 4 -10 6 0 11 5 11 10 0 6 -2 10 -4 10 -3 0
-8 -4 -11 -10z"/>
        <path d="M280 555 c0 -32 2 -35 30 -35 32 0 37 9 18 28 -17 17 -26 15 -31 -5
-3 -12 -5 -8 -6 9 -1 22 4 27 27 31 25 4 25 4 -5 6 -31 1 -33 -1 -33 -34z"/>
        <path d="M450 555 c0 -32 2 -35 30 -35 28 0 30 3 30 35 0 32 -2 35 -30 35 -28
0 -30 -3 -30 -35z m47 6 c1 -11 -5 -22 -12 -25 -21 -8 -27 10 -9 28 19 20 19
20 21 -3z"/>
        <path d="M530 555 c0 -32 2 -35 30 -35 26 0 30 3 30 29 0 17 -6 31 -15 35 -12
4 -14 0 -9 -18 4 -16 0 -25 -11 -30 -14 -5 -16 -1 -10 24 4 19 3 30 -4 30 -6
0 -11 -16 -11 -35z"/>
        <path d="M700 555 c0 -32 2 -35 30 -35 28 0 30 3 30 35 0 32 -2 35 -30 35 -28
0 -30 -3 -30 -35z m43 18 c-7 -2 -19 -2 -25 0 -7 3 -2 5 12 5 14 0 19 -2 13
-5z m4 -39 c-3 -3 -12 -4 -19 -1 -8 3 -5 6 6 6 11 1 17 -2 13 -5z"/>
        <path d="M1040 581 c0 -5 6 -12 13 -14 10 -4 10 -6 0 -6 -7 -1 -13 -10 -13
-21 0 -16 7 -20 30 -20 28 0 30 3 30 35 0 32 -2 35 -30 35 -16 0 -30 -4 -30
-9z"/>
        <path d="M1140 583 c0 -5 7 -17 15 -27 8 -10 12 -23 9 -27 -3 -5 0 -9 5 -9 15
0 14 33 -1 49 -10 11 -10 13 0 7 6 -4 12 -2 12 3 0 6 -9 11 -20 11 -11 0 -20
-3 -20 -7z"/>
        <path d="M1440 555 c0 -32 2 -35 30 -35 28 0 30 3 30 35 0 32 -2 35 -30 35
-28 0 -30 -3 -30 -35z"/>
        <path d="M1540 576 c0 -8 5 -16 12 -18 6 -2 8 -10 4 -17 -5 -7 -14 -10 -22 -7
-8 3 -14 1 -14 -4 0 -6 14 -10 30 -10 28 0 30 2 30 38 0 27 -3 33 -10 22 -6
-10 -10 -11 -10 -2 0 6 -4 12 -10 12 -5 0 -10 -6 -10 -14z"/>
        <path d="M1920 553 c0 -30 3 -33 30 -33 28 0 30 3 30 35 0 33 -2 35 -30 33
-27 -2 -30 -6 -30 -35z"/>
        <path d="M1120 535 c0 -8 7 -15 16 -15 14 0 14 3 4 15 -7 8 -14 15 -16 15 -2
0 -4 -7 -4 -15z"/>
        <path d="M200 463 c0 -16 6 -23 20 -23 11 0 20 6 20 13 0 8 4 7 10 -3 8 -12
10 -10 10 11 0 22 -4 26 -30 26 -25 0 -30 -4 -30 -24z"/>
        <path d="M280 470 c0 -17 3 -18 25 -8 14 6 25 15 25 20 0 4 -11 8 -25 8 -18 0
-25 -5 -25 -20z"/>
        <path d="M370 455 c0 -32 2 -35 30 -35 27 0 30 3 30 33 0 28 -3 32 -30 34 -28
2 -30 0 -30 -32z m30 4 c0 -11 -4 -18 -10 -14 -5 3 -7 12 -3 20 7 21 13 19 13
-6z"/>
        <path d="M620 463 c0 -22 2 -25 10 -13 8 13 10 13 10 -2 0 -9 -6 -19 -12 -21
-7 -3 2 -6 20 -6 30 -1 32 1 32 34 0 32 -2 35 -30 35 -26 0 -30 -4 -30 -27z"/>
        <path d="M701 453 l2 -38 6 35 c6 37 20 31 16 -7 -1 -16 4 -23 17 -23 14 0 18
8 18 35 0 32 -2 35 -30 35 -28 0 -30 -2 -29 -37z"/>
        <path d="M870 455 c0 -32 2 -35 30 -35 28 0 30 3 30 35 0 32 -2 35 -30 35 -28
0 -30 -3 -30 -35z m50 0 c0 -14 -4 -25 -10 -25 -5 0 -10 11 -10 25 0 14 5 25
10 25 6 0 10 -11 10 -25z"/>
        <path d="M1040 455 c0 -33 2 -35 33 -34 30 1 31 2 6 8 -23 5 -25 9 -17 31 7
20 11 22 18 10 5 -8 12 -11 15 -8 12 12 -6 28 -31 28 -21 0 -24 -5 -24 -35z"/>
        <path d="M1120 455 c0 -32 2 -35 30 -35 28 0 30 3 30 35 0 32 -2 35 -30 35
-28 0 -30 -3 -30 -35z m50 -6 c0 -12 -7 -19 -20 -19 -19 0 -28 28 -14 43 11
11 34 -5 34 -24z"/>
        <path d="M1200 453 c0 -30 3 -33 30 -33 28 0 30 3 30 35 0 32 -2 34 -30 32
-27 -2 -30 -6 -30 -34z m39 -22 c-15 -5 -22 6 -14 19 6 9 10 9 16 -1 5 -8 4
-15 -2 -18z"/>
        <path d="M1280 453 c0 -30 3 -33 30 -33 28 0 30 2 28 38 l-1 37 -4 -34 c-4
-34 -5 -34 -17 -10 -8 16 -9 26 -2 31 6 4 1 6 -12 5 -18 -1 -22 -7 -22 -34z"/>
        <path d="M1360 455 c0 -32 2 -35 30 -35 28 0 30 3 30 35 0 32 -2 35 -30 35
-28 0 -30 -3 -30 -35z"/>
        <path d="M1520 455 c0 -32 2 -35 30 -35 28 0 30 3 30 35 0 32 -2 35 -30 35
-28 0 -30 -3 -30 -35z m50 1 c0 -19 -4 -23 -20 -19 -20 5 -20 7 -4 24 22 24
24 24 24 -5z"/>
        <path d="M1672 455 c2 -31 5 -35 30 -35 25 0 28 3 28 35 0 32 -2 35 -30 35
-29 0 -30 -2 -28 -35z m28 -5 c0 -5 -4 -10 -10 -10 -5 0 -10 5 -10 10 0 6 5
10 10 10 6 0 10 -4 10 -10z"/>
        <path d="M1838 465 c2 -14 9 -25 14 -25 6 0 8 7 4 15 -3 8 0 14 6 12 6 -1 13
4 15 11 3 7 -4 12 -20 12 -20 0 -23 -4 -19 -25z"/>
        <path d="M1888 463 c-2 -22 -10 -29 -33 -34 -29 -6 -29 -7 8 -8 36 -1 37 0 37
34 0 42 -7 46 -12 8z"/>
        <path d="M213 423 c9 -2 25 -2 35 0 9 3 1 5 -18 5 -19 0 -27 -2 -17 -5z"/>
        <path d="M298 423 c12 -2 30 -2 40 0 9 3 -1 5 -23 4 -22 0 -30 -2 -17 -4z"/>
        <path d="M115 382 c-3 -3 -5 -18 -5 -34 0 -25 3 -28 35 -28 28 0 35 4 35 20 0
22 -16 27 -22 8 -3 -8 -9 -8 -22 -1 -16 9 -14 11 13 16 17 4 31 10 31 14 0 9
-57 13 -65 5z"/>
        <path d="M280 353 c0 -30 3 -33 31 -33 36 0 35 21 -2 30 l-24 6 28 7 c36 10
35 22 -3 22 -27 0 -30 -3 -30 -32z"/>
        <path d="M450 353 c0 -30 3 -33 30 -33 27 0 30 3 30 33 0 31 -3 34 -30 34 -27
0 -30 -3 -30 -34z m48 0 c2 -8 -5 -13 -17 -13 -12 0 -21 6 -21 16 0 18 31 15
38 -3z"/>
        <path d="M530 353 c0 -30 3 -33 30 -33 27 0 30 3 30 34 0 30 -2 33 -30 32 -27
-1 -30 -4 -30 -33z m50 -3 c0 -4 -9 -6 -21 -3 -15 4 -17 8 -8 14 14 8 29 3 29
-11z"/>
        <path d="M700 355 c0 -32 2 -35 30 -35 28 0 30 3 30 35 0 32 -2 35 -30 35 -28
0 -30 -3 -30 -35z"/>
        <path d="M790 353 c0 -29 3 -33 28 -33 24 0 27 4 28 34 0 30 -2 33 -28 32 -25
-1 -28 -5 -28 -33z"/>
        <path d="M980 381 l-25 -7 28 -6 c19 -4 27 -1 27 8 0 8 -1 14 -2 13 -2 -1 -14
-4 -28 -8z"/>
        <path d="M1040 355 c0 -32 2 -35 30 -35 26 0 30 4 30 27 0 21 -3 24 -12 15 -7
-7 -19 -12 -27 -11 -14 0 -14 1 -1 6 8 4 21 12 28 20 11 11 8 13 -17 13 -29 0
-31 -3 -31 -35z"/>
        <path d="M1200 356 c0 -33 2 -36 30 -36 28 0 30 3 30 36 0 20 -4 33 -10 29 -5
-3 -7 -12 -3 -20 3 -10 -1 -15 -16 -15 -13 0 -19 5 -15 14 3 8 1 17 -5 21 -7
4 -11 -7 -11 -29z"/>
        <path d="M1360 353 c0 -30 3 -33 30 -33 27 0 30 3 30 33 0 29 -3 32 -30 32
-27 0 -30 -3 -30 -32z m50 9 c0 -14 -11 -21 -26 -15 -21 8 -17 23 6 23 11 0
20 -4 20 -8z"/>
        <path d="M1440 355 c0 -32 2 -35 30 -35 28 0 30 3 30 36 0 33 -2 35 -17 23
-11 -10 -14 -10 -9 -1 5 8 0 12 -13 12 -17 0 -21 -6 -21 -35z m50 -5 c0 -5 -7
-7 -15 -4 -8 4 -15 8 -15 10 0 2 7 4 15 4 8 0 15 -4 15 -10z"/>
        <path d="M1520 380 c0 -5 9 -10 20 -10 11 0 20 5 20 10 0 6 -9 10 -20 10 -11
0 -20 -4 -20 -10z"/>
        <path d="M1570 365 c0 -18 -5 -25 -19 -25 -11 0 -22 6 -24 13 -3 6 -6 2 -6
-10 -1 -19 4 -23 29 -23 28 0 30 3 30 35 0 19 -2 35 -5 35 -3 0 -5 -11 -5 -25z"/>
        <path d="M1600 355 c0 -32 2 -35 30 -35 28 0 30 3 30 35 0 32 -2 35 -30 35
-28 0 -30 -3 -30 -35z m47 11 c0 -8 -8 -11 -21 -8 -19 5 -19 6 0 13 10 4 19 8
20 8 0 1 1 -5 1 -13z"/>
        <path d="M1750 355 c0 -32 2 -35 30 -35 27 0 29 3 28 33 -1 29 -5 33 -30 35
-26 2 -28 0 -28 -33z"/>
        <path d="M960 333 c0 -7 11 -13 25 -13 15 0 25 6 25 15 0 10 -9 14 -25 13 -14
-1 -25 -8 -25 -15z"/>
    </g>
    <text class="text-size" x="120" y="135">TopC</text>
</svg>
